<?xml version="1.0" standalone="no"?>
<!DOCTYPE svg PUBLIC "-//W3C//DTD SVG 20010904//EN"
 "http://www.w3.org/TR/2001/REC-SVG-20010904/DTD/svg10.dtd">
<svg version="1.0" xmlns="http://www.w3.org/2000/svg"
 width="700.000000pt" height="700.000000pt" viewBox="0 0 700.000000 700.000000"
 preserveAspectRatio="xMidYMid meet">
<metadata>
Created by potrace 1.14, written by Peter Selinger 2001-2017
</metadata>
<g transform="translate(0.000000,700.000000) scale(0.100000,-0.100000)"
fill="#000000" stroke="none">
<path d="M2559 6722 c-306 -152 -792 -394 -1080 -536 -913 -452 -1464 -727
-1472 -735 -4 -4 -6 -80 -5 -170 l3 -162 220 109 c1401 694 2377 1178 2995
1485 l575 286 -340 -1 -340 0 -556 -276z"/>
<path d="M4949 5686 c-2 -2 -29 -6 -59 -9 -30 -4 -80 -11 -110 -17 -30 -7 -68
-14 -84 -17 -51 -8 -223 -72 -304 -111 -251 -123 -485 -353 -612 -601 -19 -38
-23 -41 -53 -35 -17 3 -77 6 -132 6 -306 -1 -630 -148 -956 -432 -154 -134
-456 -437 -702 -705 -56 -60 -106 -115 -112 -121 -5 -6 -26 -30 -45 -54 -19
-23 -43 -52 -54 -64 -38 -44 -184 -244 -231 -316 -111 -173 -190 -355 -224
-515 -11 -55 -6 -239 8 -288 33 -115 123 -237 226 -309 188 -130 462 -188 855
-183 192 3 296 8 380 19 19 3 60 8 90 11 30 3 66 8 80 10 14 2 45 7 70 10 25
3 97 15 161 26 64 10 122 19 130 19 12 0 14 -154 14 -1003 l0 -1002 168 -3
167 -2 0 1035 c0 569 3 1035 8 1036 10 1 31 5 146 29 54 11 102 20 106 20 6 0
19 -67 35 -180 2 -14 6 -45 10 -70 8 -51 8 -54 30 -210 9 -63 19 -131 21 -150
3 -19 7 -46 9 -60 2 -14 7 -43 9 -65 3 -22 15 -105 26 -185 12 -80 23 -161 26
-180 2 -20 6 -45 8 -55 2 -11 7 -45 11 -75 4 -30 9 -62 10 -70 1 -8 6 -40 10
-70 4 -30 9 -62 10 -70 1 -8 6 -40 10 -70 4 -30 9 -62 10 -70 2 -8 6 -37 9
-65 4 -27 11 -77 16 -110 5 -33 12 -80 15 -105 3 -25 12 -90 20 -144 8 -55 15
-103 15 -108 0 -4 83 -8 185 -8 l185 0 -5 38 c-3 20 -7 51 -10 67 -2 17 -7 53
-10 80 -4 28 -8 57 -10 65 -2 8 -7 38 -10 65 -4 28 -8 61 -11 75 -2 14 -6 45
-9 70 -3 25 -8 56 -10 70 -8 45 -14 83 -30 200 -8 63 -17 126 -20 140 -2 14
-11 78 -20 142 -9 65 -18 125 -19 135 -2 10 -7 41 -10 68 -4 28 -9 64 -11 80
-3 17 -7 48 -10 70 -3 22 -7 54 -10 70 -3 17 -7 48 -10 70 -12 84 -26 181 -30
205 -6 42 -25 173 -30 208 -2 18 -6 45 -9 60 -3 15 -8 52 -11 82 -3 30 -8 62
-10 70 -3 8 -6 35 -8 60 l-4 45 97 48 c121 60 205 119 295 211 173 175 281
418 312 702 11 98 8 308 -6 406 -14 97 -51 244 -88 343 -38 105 -136 287 -205
382 -66 93 -204 238 -284 300 l-51 39 14 53 c15 62 68 173 103 222 34 45 137
149 180 180 117 86 283 150 475 184 137 24 633 24 885 0 19 -2 73 -6 120 -10
47 -3 99 -8 115 -10 17 -2 64 -7 105 -10 41 -4 81 -8 90 -10 8 -1 49 -6 90
-10 41 -4 83 -9 94 -11 10 -2 41 -6 70 -9 28 -4 62 -8 76 -9 14 -2 52 -7 85
-11 33 -3 69 -8 80 -10 11 -2 38 -6 60 -10 32 -5 36 -4 22 5 -55 35 -466 195
-662 257 -60 19 -137 44 -170 54 -68 22 -441 115 -495 123 -84 14 -178 27
-215 32 -22 3 -53 7 -70 10 -34 6 -411 14 -416 10z m-1155 -1136 c96 -24 246
-94 330 -154 218 -156 395 -425 465 -708 30 -124 36 -178 35 -328 -1 -341
-115 -583 -346 -736 -118 -78 -334 -157 -544 -198 -43 -8 -88 -17 -99 -20 -11
-2 -40 -7 -65 -11 -25 -4 -54 -9 -65 -11 -11 -3 -36 -7 -55 -10 -19 -3 -87
-14 -150 -24 -63 -11 -133 -22 -155 -25 -22 -4 -47 -8 -55 -10 -8 -2 -37 -7
-65 -11 -27 -3 -52 -8 -55 -9 -3 -2 -37 -6 -75 -10 -39 -4 -72 -9 -75 -10 -3
-2 -39 -6 -80 -10 -41 -4 -88 -9 -105 -12 -16 -2 -133 -6 -260 -8 -205 -3
-309 3 -384 20 -23 6 -22 7 15 27 84 45 195 137 324 267 131 133 257 281 213
251 -12 -8 -81 -57 -154 -108 -148 -105 -345 -226 -433 -265 -129 -59 -265
-70 -312 -26 -57 53 -68 170 -30 300 l17 57 82 37 c45 21 123 53 172 72 105
41 114 47 60 39 -22 -3 -62 -8 -90 -11 -27 -4 -66 -10 -85 -15 -19 -4 -48 -11
-64 -14 l-28 -7 38 68 c31 57 117 190 146 228 196 255 334 408 703 780 242
244 347 336 505 442 148 99 315 169 433 180 34 3 63 7 65 8 9 8 158 -9 226
-25z"/>
<path d="M3418 4310 c-73 -23 -106 -42 -155 -88 -188 -180 -61 -430 213 -416
181 9 335 143 335 292 1 46 -18 101 -43 132 -72 87 -219 121 -350 80z m196
-135 c39 -17 65 -57 60 -93 -16 -98 -204 -175 -305 -124 -166 83 68 291 245
217z"/>
</g>
</svg>
